<mxfile host="app.diagrams.net" agent="Mozilla/5.0 (Windows NT 10.0; Win64; x64) AppleWebKit/537.36 (KHTML, like Gecko) Chrome/137.0.0.0 Safari/537.36" version="27.2.0">
  <diagram name="Page-1" id="3dObVW5IU2WCZUntuGhy">
    <mxGraphModel dx="1426" dy="789" grid="1" gridSize="10" guides="1" tooltips="1" connect="1" arrows="1" fold="1" page="1" pageScale="1" pageWidth="850" pageHeight="1100" math="0" shadow="0">
      <root>
        <mxCell id="0" />
        <mxCell id="1" parent="0" />
        <mxCell id="PyDyYfzXzFYTBOboAxfh-21" value="" style="edgeStyle=orthogonalEdgeStyle;rounded=0;orthogonalLoop=1;jettySize=auto;html=1;" edge="1" parent="1" source="PyDyYfzXzFYTBOboAxfh-1" target="PyDyYfzXzFYTBOboAxfh-2">
          <mxGeometry relative="1" as="geometry" />
        </mxCell>
        <mxCell id="PyDyYfzXzFYTBOboAxfh-1" value="" style="points=[];aspect=fixed;html=1;align=center;shadow=0;dashed=0;fillColor=#FF6A00;strokeColor=none;shape=mxgraph.alibaba_cloud.uis_ultimate_internet_service;" vertex="1" parent="1">
          <mxGeometry y="330" width="54.900000000000006" height="54" as="geometry" />
        </mxCell>
        <mxCell id="PyDyYfzXzFYTBOboAxfh-22" value="" style="edgeStyle=orthogonalEdgeStyle;rounded=0;orthogonalLoop=1;jettySize=auto;html=1;" edge="1" parent="1" source="PyDyYfzXzFYTBOboAxfh-2" target="PyDyYfzXzFYTBOboAxfh-5">
          <mxGeometry relative="1" as="geometry" />
        </mxCell>
        <mxCell id="PyDyYfzXzFYTBOboAxfh-2" value="" style="points=[];aspect=fixed;html=1;align=center;shadow=0;dashed=0;fillColor=#FF6A00;strokeColor=none;shape=mxgraph.alibaba_cloud.router;" vertex="1" parent="1">
          <mxGeometry x="120" y="328.2" width="55.2" height="57.599999999999994" as="geometry" />
        </mxCell>
        <mxCell id="PyDyYfzXzFYTBOboAxfh-20" value="" style="edgeStyle=orthogonalEdgeStyle;rounded=0;orthogonalLoop=1;jettySize=auto;html=1;" edge="1" parent="1" source="PyDyYfzXzFYTBOboAxfh-3" target="PyDyYfzXzFYTBOboAxfh-7">
          <mxGeometry relative="1" as="geometry" />
        </mxCell>
        <mxCell id="PyDyYfzXzFYTBOboAxfh-3" value="" style="points=[];aspect=fixed;html=1;align=center;shadow=0;dashed=0;fillColor=#FF6A00;strokeColor=none;shape=mxgraph.alibaba_cloud.vswitch;" vertex="1" parent="1">
          <mxGeometry x="350" y="338.25" width="52.5" height="37.5" as="geometry" />
        </mxCell>
        <mxCell id="PyDyYfzXzFYTBOboAxfh-23" value="" style="edgeStyle=orthogonalEdgeStyle;rounded=0;orthogonalLoop=1;jettySize=auto;html=1;" edge="1" parent="1" source="PyDyYfzXzFYTBOboAxfh-5" target="PyDyYfzXzFYTBOboAxfh-3">
          <mxGeometry relative="1" as="geometry" />
        </mxCell>
        <mxCell id="PyDyYfzXzFYTBOboAxfh-5" value="" style="verticalLabelPosition=bottom;html=1;verticalAlign=top;align=center;strokeColor=none;fillColor=#00BEF2;shape=mxgraph.azure.computer;pointerEvents=1;" vertex="1" parent="1">
          <mxGeometry x="240" y="334.5" width="50" height="45" as="geometry" />
        </mxCell>
        <mxCell id="PyDyYfzXzFYTBOboAxfh-6" value="" style="verticalLabelPosition=bottom;html=1;verticalAlign=top;align=center;strokeColor=none;fillColor=#00BEF2;shape=mxgraph.azure.computer;pointerEvents=1;rotation=0;" vertex="1" parent="1">
          <mxGeometry x="475.01" y="90" width="50" height="45" as="geometry" />
        </mxCell>
        <mxCell id="PyDyYfzXzFYTBOboAxfh-7" value="" style="verticalLabelPosition=bottom;html=1;verticalAlign=top;align=center;strokeColor=none;fillColor=#00BEF2;shape=mxgraph.azure.computer;pointerEvents=1;rotation=0;" vertex="1" parent="1">
          <mxGeometry x="487.51" y="358.2" width="50" height="45" as="geometry" />
        </mxCell>
        <mxCell id="PyDyYfzXzFYTBOboAxfh-8" value="" style="verticalLabelPosition=bottom;html=1;verticalAlign=top;align=center;strokeColor=none;fillColor=#00BEF2;shape=mxgraph.azure.computer;pointerEvents=1;rotation=0;" vertex="1" parent="1">
          <mxGeometry x="650" y="45" width="50" height="45" as="geometry" />
        </mxCell>
        <mxCell id="PyDyYfzXzFYTBOboAxfh-9" value="" style="verticalLabelPosition=bottom;html=1;verticalAlign=top;align=center;strokeColor=none;fillColor=#00BEF2;shape=mxgraph.azure.computer;pointerEvents=1;direction=south;rotation=-90;" vertex="1" parent="1">
          <mxGeometry x="492.51" y="260" width="45" height="50" as="geometry" />
        </mxCell>
        <mxCell id="PyDyYfzXzFYTBOboAxfh-10" value="" style="verticalLabelPosition=bottom;html=1;verticalAlign=top;align=center;strokeColor=none;fillColor=#00BEF2;shape=mxgraph.azure.computer;pointerEvents=1;rotation=0;" vertex="1" parent="1">
          <mxGeometry x="650" y="130" width="50" height="45" as="geometry" />
        </mxCell>
        <mxCell id="PyDyYfzXzFYTBOboAxfh-11" value="" style="verticalLabelPosition=bottom;html=1;verticalAlign=top;align=center;strokeColor=none;fillColor=#00BEF2;shape=mxgraph.azure.computer;pointerEvents=1;rotation=0;" vertex="1" parent="1">
          <mxGeometry x="650" y="215" width="50" height="45" as="geometry" />
        </mxCell>
        <mxCell id="PyDyYfzXzFYTBOboAxfh-19" value="" style="edgeStyle=orthogonalEdgeStyle;rounded=0;orthogonalLoop=1;jettySize=auto;html=1;" edge="1" parent="1" source="PyDyYfzXzFYTBOboAxfh-12" target="PyDyYfzXzFYTBOboAxfh-13">
          <mxGeometry relative="1" as="geometry" />
        </mxCell>
        <mxCell id="PyDyYfzXzFYTBOboAxfh-12" value="" style="verticalLabelPosition=bottom;html=1;verticalAlign=top;align=center;strokeColor=none;fillColor=#00BEF2;shape=mxgraph.azure.computer;pointerEvents=1;rotation=0;" vertex="1" parent="1">
          <mxGeometry x="478.88" y="505" width="50" height="45" as="geometry" />
        </mxCell>
        <mxCell id="PyDyYfzXzFYTBOboAxfh-13" value="" style="sketch=0;pointerEvents=1;shadow=0;dashed=0;html=1;strokeColor=none;fillColor=#434445;aspect=fixed;labelPosition=center;verticalLabelPosition=bottom;verticalAlign=top;align=center;outlineConnect=0;shape=mxgraph.vvd.ssd;" vertex="1" parent="1">
          <mxGeometry x="482.76" y="610" width="42.25" height="30" as="geometry" />
        </mxCell>
        <mxCell id="PyDyYfzXzFYTBOboAxfh-24" value="" style="endArrow=classic;html=1;rounded=0;entryX=0;entryY=0.5;entryDx=0;entryDy=0;entryPerimeter=0;" edge="1" parent="1" target="PyDyYfzXzFYTBOboAxfh-9">
          <mxGeometry width="50" height="50" relative="1" as="geometry">
            <mxPoint x="400" y="330" as="sourcePoint" />
            <mxPoint x="450" y="280" as="targetPoint" />
          </mxGeometry>
        </mxCell>
        <mxCell id="PyDyYfzXzFYTBOboAxfh-26" value="" style="endArrow=classic;html=1;rounded=0;exitX=0.913;exitY=-0.125;exitDx=0;exitDy=0;exitPerimeter=0;entryX=0;entryY=0.5;entryDx=0;entryDy=0;entryPerimeter=0;" edge="1" parent="1" source="PyDyYfzXzFYTBOboAxfh-42" target="PyDyYfzXzFYTBOboAxfh-12">
          <mxGeometry width="50" height="50" relative="1" as="geometry">
            <mxPoint x="400" y="330" as="sourcePoint" />
            <mxPoint x="470" y="530" as="targetPoint" />
          </mxGeometry>
        </mxCell>
        <mxCell id="PyDyYfzXzFYTBOboAxfh-27" value="" style="endArrow=classic;html=1;rounded=0;exitX=0.514;exitY=0.153;exitDx=0;exitDy=0;exitPerimeter=0;entryX=-0.02;entryY=0.733;entryDx=0;entryDy=0;entryPerimeter=0;" edge="1" parent="1" source="PyDyYfzXzFYTBOboAxfh-3" target="PyDyYfzXzFYTBOboAxfh-6">
          <mxGeometry width="50" height="50" relative="1" as="geometry">
            <mxPoint x="400" y="330" as="sourcePoint" />
            <mxPoint x="450" y="280" as="targetPoint" />
          </mxGeometry>
        </mxCell>
        <mxCell id="PyDyYfzXzFYTBOboAxfh-35" style="edgeStyle=orthogonalEdgeStyle;rounded=0;orthogonalLoop=1;jettySize=auto;html=1;exitX=0.98;exitY=0.02;exitDx=0;exitDy=0;exitPerimeter=0;entryX=0;entryY=0.5;entryDx=0;entryDy=0;entryPerimeter=0;" edge="1" parent="1" source="PyDyYfzXzFYTBOboAxfh-6" target="PyDyYfzXzFYTBOboAxfh-8">
          <mxGeometry relative="1" as="geometry" />
        </mxCell>
        <mxCell id="PyDyYfzXzFYTBOboAxfh-36" style="edgeStyle=orthogonalEdgeStyle;rounded=0;orthogonalLoop=1;jettySize=auto;html=1;exitX=1;exitY=0.5;exitDx=0;exitDy=0;exitPerimeter=0;entryX=0;entryY=0.5;entryDx=0;entryDy=0;entryPerimeter=0;" edge="1" parent="1" source="PyDyYfzXzFYTBOboAxfh-6" target="PyDyYfzXzFYTBOboAxfh-10">
          <mxGeometry relative="1" as="geometry" />
        </mxCell>
        <mxCell id="PyDyYfzXzFYTBOboAxfh-37" style="edgeStyle=orthogonalEdgeStyle;rounded=0;orthogonalLoop=1;jettySize=auto;html=1;exitX=0.805;exitY=1;exitDx=0;exitDy=0;exitPerimeter=0;entryX=0;entryY=0.333;entryDx=0;entryDy=0;entryPerimeter=0;" edge="1" parent="1" source="PyDyYfzXzFYTBOboAxfh-6" target="PyDyYfzXzFYTBOboAxfh-11">
          <mxGeometry relative="1" as="geometry" />
        </mxCell>
        <mxCell id="PyDyYfzXzFYTBOboAxfh-38" value="Internet" style="text;strokeColor=none;align=center;fillColor=none;html=1;verticalAlign=middle;whiteSpace=wrap;rounded=0;" vertex="1" parent="1">
          <mxGeometry x="4.9" y="384" width="50" height="30" as="geometry" />
        </mxCell>
        <mxCell id="PyDyYfzXzFYTBOboAxfh-39" value="E3000" style="text;html=1;align=center;verticalAlign=middle;resizable=0;points=[];autosize=1;strokeColor=none;fillColor=none;" vertex="1" parent="1">
          <mxGeometry x="117.60000000000001" y="384" width="60" height="30" as="geometry" />
        </mxCell>
        <mxCell id="PyDyYfzXzFYTBOboAxfh-40" value="Kali-VM" style="text;html=1;align=center;verticalAlign=middle;resizable=0;points=[];autosize=1;strokeColor=none;fillColor=none;" vertex="1" parent="1">
          <mxGeometry x="230" y="385.8" width="70" height="30" as="geometry" />
        </mxCell>
        <mxCell id="PyDyYfzXzFYTBOboAxfh-41" value="Infra +SSD" style="text;html=1;align=center;verticalAlign=middle;resizable=0;points=[];autosize=1;strokeColor=none;fillColor=none;rotation=0;" vertex="1" parent="1">
          <mxGeometry x="463.88" y="475" width="80" height="30" as="geometry" />
        </mxCell>
        <mxCell id="PyDyYfzXzFYTBOboAxfh-42" value="Switch" style="text;html=1;align=center;verticalAlign=middle;resizable=0;points=[];autosize=1;strokeColor=none;fillColor=none;rotation=0;" vertex="1" parent="1">
          <mxGeometry x="346.25" y="375.75" width="60" height="30" as="geometry" />
        </mxCell>
        <mxCell id="PyDyYfzXzFYTBOboAxfh-43" value="Defender" style="text;html=1;align=center;verticalAlign=middle;resizable=0;points=[];autosize=1;strokeColor=none;fillColor=none;rotation=0;" vertex="1" parent="1">
          <mxGeometry x="478.88" y="334.5" width="70" height="30" as="geometry" />
        </mxCell>
        <mxCell id="PyDyYfzXzFYTBOboAxfh-44" value="SEIM" style="text;html=1;align=center;verticalAlign=middle;resizable=0;points=[];autosize=1;strokeColor=none;fillColor=none;rotation=0;" vertex="1" parent="1">
          <mxGeometry x="487.51" y="240" width="50" height="30" as="geometry" />
        </mxCell>
        <mxCell id="PyDyYfzXzFYTBOboAxfh-45" value="Pivot" style="text;html=1;align=center;verticalAlign=middle;resizable=0;points=[];autosize=1;strokeColor=none;fillColor=none;" vertex="1" parent="1">
          <mxGeometry x="475.01" y="70" width="50" height="30" as="geometry" />
        </mxCell>
        <mxCell id="PyDyYfzXzFYTBOboAxfh-46" value="Vic 1" style="text;html=1;align=center;verticalAlign=middle;resizable=0;points=[];autosize=1;strokeColor=none;fillColor=none;" vertex="1" parent="1">
          <mxGeometry x="650" y="20" width="50" height="30" as="geometry" />
        </mxCell>
        <mxCell id="PyDyYfzXzFYTBOboAxfh-47" value="Vic 2" style="text;html=1;align=center;verticalAlign=middle;resizable=0;points=[];autosize=1;strokeColor=none;fillColor=none;" vertex="1" parent="1">
          <mxGeometry x="650" y="105" width="50" height="30" as="geometry" />
        </mxCell>
        <mxCell id="PyDyYfzXzFYTBOboAxfh-48" value="Vic 3" style="text;html=1;align=center;verticalAlign=middle;resizable=0;points=[];autosize=1;strokeColor=none;fillColor=none;" vertex="1" parent="1">
          <mxGeometry x="650" y="188" width="50" height="30" as="geometry" />
        </mxCell>
      </root>
    </mxGraphModel>
  </diagram>
</mxfile>
